 http://desibbrg.org/images/66952052392581364616.gif 
http://desibbrg.org/images/86301725046865928284.jpg 
http://desibbrg.org/images/98213009371002822287.jpg 
http://desibbrg.org/images/54143347294352971678.jpg 
http://desibbrg.org/images/97661257308879641641.jpg 
http://desibbrg.org/images/39539229691809346078.jpg

Media Info - 
Video
ID : 0
Format : MPEG-4 Visual
Format profile : Advanced Simple@L5
Format settings, BVOP : 2
Format settings, QPel : No
Format settings, GMC : No warppoints
Format settings, Matrix : Default (H.263)
Codec ID : XVID
Codec ID/Hint : XviD
Duration : 2h 22mn
Bit rate : 574 Kbps
Width : 640 pixels
Height : 272 pixels
Display aspect ratio : 2.35:1
Frame rate : 29.970 fps
Color space : YUV
Chroma subsampling : 4:2:0
Bit depth : 8 bits
Scan type : Progressive
Compression mode : Lossy
Bits/(Pixel*Frame) : 0.110
Stream size : 585 MiB (85%)
Writing library : XviD 1.2.1 (UTC 2008-12-04)

Audio
ID : 1
Format : MPEG Audio
Format version : Version 1
Format profile : Layer 3
Mode : Joint stereo
Mode extension : MS Stereo
Codec ID : 55
Codec ID/Hint : MP3
Duration : 2h 22mn
Bit rate mode : Constant
Bit rate : 96.0 Kbps
Channel(s) : 2 channels
Sampling rate : 32.0 KHz
Compression mode : Lossy
Stream size : 97.9 MiB (14%)
Alignment : Aligned on interleaves
Interleave, duration : 133 ms (4.00 video frames)
Interleave, preload duration : 216 ms
Title : VTS_02_1 T80 3_2ch 448Kbps DELAY 0ms
Writing library : LAME3.99r
Encoding settings : -m j -V 4 -q 2 -lowpass 15.1 -b 96

Ripper : MasterMind

Seeding 24x7... Extreme Seeding...


Enjoy!
